ffmpeg started on 2016-12-09 at 17:09:52
Report written to "Output/x264/results/ffmpeg/sintelplacebo7000k.log"
Command line:
Tools/ffmpeg/ffmpeg -benchmark -y -i Input/y4m/sintel.y4m -c:v libx264 -preset placebo -b:v 7000k -an Output/x264/encoded/sintelplacebo7000k.mkv
ffmpeg version N-82227-gdb23fde Copyright (c) 2000-2016 the FFmpeg developers
  built with gcc 5.4.0 (Ubuntu 5.4.0-6ubuntu1~16.04.2) 20160609
  configuration: --prefix=/home/jaroslav/ffmpeg_build --pkg-config-flags=--static --extra-cflags=-I/home/jaroslav/ffmpeg_build/include --extra-ldflags=-L/home/jaroslav/ffmpeg_build/lib --bindir=/home/jaroslav/bin --enable-gpl --enable-libass --enable-libfdk-aac --enable-libfreetype --enable-libmp3lame --enable-libopus --enable-libtheora --enable-libvorbis --enable-libvpx --enable-libx264 --enable-libx265 --enable-nvenc --enable-libmfx --enable-libxvid --enable-libgsm --enable-libopencore-amrnb --enable-version3 --enable-nonfree
  libavutil      55. 35.100 / 55. 35.100
  libavcodec     57. 66.101 / 57. 66.101
  libavformat    57. 57.100 / 57. 57.100
  libavdevice    57.  2.100 / 57.  2.100
  libavfilter     6. 66.100 /  6. 66.100
  libswscale      4.  3.100 /  4.  3.100
  libswresample   2.  4.100 /  2.  4.100
  libpostproc    54.  2.100 / 54.  2.100
Input #0, yuv4mpegpipe, from 'Input/y4m/sintel.y4m':
  Duration: 00:00:20.83, start: 0.000000, bitrate: 2057307 kb/s
    Stream #0:0: Video: rawvideo (I420 / 0x30323449), yuv420p(progressive), 4096x1744, SAR 1:1 DAR 256:109, 24 fps, 24 tbr, 24 tbn, 24 tbc
[libx264 @ 0x301d1c0] using SAR=1/1
[libx264 @ 0x301d1c0] DPB size (16 frames, 446464 mbs) > level limit (6 frames, 184320 mbs)
[libx264 @ 0x301d1c0] using cpu capabilities: MMX2 SSE2Fast SSSE3 SSE4.2 AVX FMA3 AVX2 LZCNT BMI2
[libx264 @ 0x301d1c0] profile High, level 5.2
[libx264 @ 0x301d1c0] 264 - core 148 - H.264/MPEG-4 AVC codec - Copyleft 2003-2016 - http://www.videolan.org/x264.html - options: cabac=1 ref=16 deblock=1:0:0 analyse=0x3:0x133 me=tesa subme=11 psy=1 psy_rd=1.00:0.00 mixed_ref=1 me_range=24 chroma_me=1 trellis=2 8x8dct=1 cqm=0 deadzone=21,11 fast_pskip=0 chroma_qp_offset=-2 threads=6 lookahead_threads=1 sliced_threads=0 nr=0 decimate=1 interlaced=0 bluray_compat=0 constrained_intra=0 bframes=16 b_pyramid=2 b_adapt=2 b_bias=0 direct=3 weightb=1 open_gop=0 weightp=2 keyint=250 keyint_min=24 scenecut=40 intra_refresh=0 rc_lookahead=60 rc=abr mbtree=1 bitrate=7000 ratetol=1.0 qcomp=0.60 qpmin=0 qpmax=69 qpstep=4 ip_ratio=1.40 aq=1:1.00
Output #0, matroska, to 'Output/x264/encoded/sintelplacebo7000k.mkv':
  Metadata:
    encoder         : Lavf57.57.100
    Stream #0:0: Video: h264 (libx264) (H264 / 0x34363248), yuv420p, 4096x1744 [SAR 1:1 DAR 256:109], q=-1--1, 7000 kb/s, 24 fps, 1k tbn, 24 tbc
    Metadata:
      encoder         : Lavc57.66.101 libx264
    Side data:
      cpb: bitrate max/min/avg: 0/0/7000000 buffer size: 0 vbv_delay: -1
Stream mapping:
  Stream #0:0 -> #0:0 (rawvideo (native) -> h264 (libx264))
Press [q] to stop, [?] for help
frame=   10 fps=0.0 q=0.0 size=       0kB time=00:00:00.00 bitrate=N/A speed=   0x    frame=   18 fps= 17 q=0.0 size=       0kB time=00:00:00.00 bitrate=N/A speed=   0x    frame=   26 fps= 16 q=0.0 size=       0kB time=00:00:00.00 bitrate=N/A speed=   0x    frame=   34 fps= 16 q=0.0 size=       0kB time=00:00:00.00 bitrate=N/A speed=   0x    frame=   42 fps= 16 q=0.0 size=       0kB time=00:00:00.00 bitrate=N/A speed=   0x    frame=   50 fps= 16 q=0.0 size=       0kB time=00:00:00.00 bitrate=N/A speed=   0x    frame=   58 fps= 16 q=0.0 size=       0kB time=00:00:00.00 bitrate=N/A speed=   0x    frame=   66 fps= 16 q=0.0 size=       0kB time=00:00:00.00 bitrate=N/A speed=   0x    frame=   69 fps=9.1 q=0.0 size=       0kB time=00:00:00.00 bitrate=N/A speed=   0x    frame=   70 fps=6.1 q=0.0 size=       0kB time=00:00:00.00 bitrate=N/A speed=   0x    frame=   71 fps=5.6 q=0.0 size=       0kB time=00:00:00.00 bitrate=N/A speed=   0x    frame=   79 fps=6.0 q=0.0 size=       0kB time=00:00:00.00 bitrate=N/A speed=   0x    frame=   84 fps=1.4 q=0.0 size=       0kB time=00:00:00.00 bitrate=N/A speed=   0x    frame=   86 fps=1.5 q=0.0 size=       0kB time=00:00:00.00 bitrate=N/A speed=   0x    frame=   88 fps=1.4 q=28.0 size=       1kB time=-00:00:00.08 bitrate=N/A speed=N/A    frame=   90 fps=1.4 q=33.0 size=       1kB time=00:00:00.00 bitrate=5888.0kbits/s speed=1.53e-05x    frame=   92 fps=1.4 q=40.0 size=       1kB time=00:00:00.08 bitrate=  70.1kbits/s speed=0.00124x    frame=   93 fps=1.2 q=45.0 size=       1kB time=00:00:00.12 bitrate=  46.7kbits/s speed=0.00169x    frame=   94 fps=1.2 q=44.0 size=       1kB time=00:00:00.16 bitrate=  35.0kbits/s speed=0.00222x    frame=   96 fps=1.3 q=45.0 size=       1kB time=00:00:00.25 bitrate=  23.5kbits/s speed=0.00327x    frame=   97 fps=1.3 q=45.0 size=       1kB time=00:00:00.29 bitrate=  20.1kbits/s speed=0.00379x    frame=   98 fps=1.2 q=45.0 size=       1kB time=00:00:00.33 bitrate=  17.6kbits/s speed=0.00426x    frame=   99 fps=1.2 q=45.0 size=       1kB time=00:00:00.37 bitrate=  15.7kbits/s speed=0.00445x    frame=  100 fps=1.2 q=45.0 size=       1kB time=00:00:00.41 bitrate=  14.1kbits/s speed=0.0049x    frame=  101 fps=1.2 q=45.0 size=       1kB time=00:00:00.45 bitrate=  12.8kbits/s speed=0.00525x    frame=  102 fps=1.2 q=45.0 size=       1kB time=00:00:00.50 bitrate=  11.8kbits/s speed=0.00568x    frame=  103 fps=1.2 q=45.0 size=       1kB time=00:00:00.54 bitrate=  10.8kbits/s speed=0.0061x    frame=  104 fps=1.1 q=45.0 size=       1kB time=00:00:00.58 bitrate=  10.1kbits/s speed=0.00628x    frame=  105 fps=1.1 q=45.0 size=       1kB time=00:00:00.62 bitrate=   9.4kbits/s speed=0.00634x    frame=  106 fps=1.0 q=45.0 size=       1kB time=00:00:00.66 bitrate=   8.8kbits/s speed=0.00642x    frame=  107 fps=1.0 q=45.0 size=       1kB time=00:00:00.70 bitrate=   8.3kbits/s speed=0.00673x    frame=  108 fps=1.0 q=45.0 size=       1kB time=00:00:00.75 bitrate=   7.8kbits/s speed=0.00703x    frame=  109 fps=1.0 q=45.0 size=       1kB time=00:00:00.79 bitrate=   7.4kbits/s speed=0.00726x    frame=  110 fps=1.0 q=44.0 size=       1kB time=00:00:00.83 bitrate=   7.1kbits/s speed=0.00741x    frame=  111 fps=1.0 q=44.0 size=       1kB time=00:00:00.87 bitrate=   6.7kbits/s speed=0.0075x    frame=  112 fps=0.9 q=44.0 size=       1kB time=00:00:00.91 bitrate=   6.4kbits/s speed=0.00753x    frame=  113 fps=0.9 q=44.0 size=       1kB time=00:00:00.95 bitrate=   6.1kbits/s speed=0.00775x    frame=  114 fps=0.9 q=44.0 size=       1kB time=00:00:01.00 bitrate=   5.9kbits/s speed=0.00797x    frame=  115 fps=0.9 q=44.0 size=       1kB time=00:00:01.04 bitrate=   5.6kbits/s speed=0.00821x    frame=  116 fps=0.9 q=44.0 size=       1kB time=00:00:01.08 bitrate=   5.4kbits/s speed=0.0084x    frame=  117 fps=0.9 q=44.0 size=       1kB time=00:00:01.12 bitrate=   5.2kbits/s speed=0.00845x    frame=  118 fps=0.9 q=44.0 size=       1kB time=00:00:01.16 bitrate=   5.0kbits/s speed=0.00853x    frame=  119 fps=0.8 q=44.0 size=       1kB time=00:00:01.20 bitrate=   4.9kbits/s speed=0.00856x    frame=  120 fps=0.8 q=44.0 size=       1kB time=00:00:01.25 bitrate=   4.7kbits/s speed=0.00872x    frame=  121 fps=0.8 q=43.0 size=       1kB time=00:00:01.29 bitrate=   4.6kbits/s speed=0.00891x    frame=  122 fps=0.8 q=43.0 size=       1kB time=00:00:01.33 bitrate=   4.4kbits/s speed=0.00904x    frame=  123 fps=0.8 q=43.0 size=       1kB time=00:00:01.37 bitrate=   4.3kbits/s speed=0.00912x    frame=  124 fps=0.8 q=43.0 size=       1kB time=00:00:01.41 bitrate=   4.2kbits/s speed=0.00913x    frame=  125 fps=0.8 q=43.0 size=       1kB time=00:00:01.45 bitrate=   4.0kbits/s speed=0.0092x    frame=  126 fps=0.8 q=43.0 size=       1kB time=00:00:01.50 bitrate=   3.9kbits/s speed=0.00929x    frame=  127 fps=0.8 q=43.0 size=       1kB time=00:00:01.54 bitrate=   3.8kbits/s speed=0.0094x    frame=  128 fps=0.8 q=43.0 size=       1kB time=00:00:01.58 bitrate=   3.7kbits/s speed=0.00953x    frame=  129 fps=0.8 q=43.0 size=       1kB time=00:00:01.62 bitrate=   3.6kbits/s speed=0.0097x    frame=  130 fps=0.8 q=43.0 size=       1kB time=00:00:01.66 bitrate=   3.5kbits/s speed=0.00968x    frame=  131 fps=0.7 q=43.0 size=       1kB time=00:00:01.70 bitrate=   3.4kbits/s speed=0.00978x    frame=  132 fps=0.7 q=43.0 size=       1kB time=00:00:01.75 bitrate=   3.4kbits/s speed=0.00985x    frame=  133 fps=0.7 q=43.0 size=       1kB time=00:00:01.79 bitrate=   3.3kbits/s speed=0.00993x    frame=  134 fps=0.7 q=42.0 size=       1kB time=00:00:01.83 bitrate=   3.2kbits/s speed=0.00993x    frame=  135 fps=0.7 q=42.0 size=       1kB time=00:00:01.87 bitrate=   3.1kbits/s speed=0.0101x    frame=  136 fps=0.7 q=42.0 size=       1kB time=00:00:01.91 bitrate=   3.1kbits/s speed=0.0101x    frame=  137 fps=0.7 q=42.0 size=       1kB time=00:00:01.95 bitrate=   3.0kbits/s speed=0.0102x    frame=  138 fps=0.7 q=42.0 size=       1kB time=00:00:02.00 bitrate=   2.9kbits/s speed=0.0102x    frame=  139 fps=0.7 q=42.0 size=       1kB time=00:00:02.04 bitrate=   2.9kbits/s speed=0.0102x    frame=  140 fps=0.7 q=42.0 size=       1kB time=00:00:02.08 bitrate=   2.8kbits/s speed=0.0102x    frame=  141 fps=0.7 q=42.0 size=       1kB time=00:00:02.12 bitrate=   2.8kbits/s speed=0.0102x    frame=  142 fps=0.7 q=42.0 size=       1kB time=00:00:02.16 bitrate=   2.7kbits/s speed=0.0103x    frame=  143 fps=0.7 q=42.0 size=       1kB time=00:00:02.20 bitrate=   2.7kbits/s speed=0.0103x    frame=  144 fps=0.7 q=42.0 size=       1kB time=00:00:02.25 bitrate=   2.6kbits/s speed=0.0103x    frame=  145 fps=0.7 q=42.0 size=       1kB time=00:00:02.29 bitrate=   2.6kbits/s speed=0.0103x    frame=  146 fps=0.6 q=42.0 size=       1kB time=00:00:02.33 bitrate=   2.5kbits/s speed=0.0103x    frame=  147 fps=0.6 q=42.0 size=       1kB time=00:00:02.37 bitrate=   2.5kbits/s speed=0.0103x    frame=  148 fps=0.6 q=42.0 size=       1kB time=00:00:02.41 bitrate=   2.4kbits/s speed=0.0104x    frame=  149 fps=0.6 q=42.0 size=       1kB time=00:00:02.45 bitrate=   2.4kbits/s speed=0.0105x    frame=  150 fps=0.6 q=42.0 size=       1kB time=00:00:02.50 bitrate=   2.4kbits/s speed=0.0105x    frame=  151 fps=0.6 q=42.0 size=       1kB time=00:00:02.54 bitrate=   2.3kbits/s speed=0.0105x    frame=  152 fps=0.6 q=42.0 size=       1kB time=00:00:02.58 bitrate=   2.3kbits/s speed=0.0105x    frame=  153 fps=0.6 q=42.0 size=       1kB time=00:00:02.62 bitrate=   2.2kbits/s speed=0.0106x    frame=  154 fps=0.6 q=42.0 size=       1kB time=00:00:02.66 bitrate=   2.2kbits/s speed=0.0105x    frame=  155 fps=0.6 q=42.0 size=       1kB time=00:00:02.70 bitrate=   2.2kbits/s speed=0.0106x    frame=  156 fps=0.6 q=42.0 size=       1kB time=00:00:02.75 bitrate=   2.1kbits/s speed=0.0106x    frame=  157 fps=0.6 q=42.0 size=       1kB time=00:00:02.79 bitrate=   2.1kbits/s speed=0.0107x    frame=  158 fps=0.6 q=42.0 size=       1kB time=00:00:02.83 bitrate=   2.1kbits/s speed=0.0108x    frame=  159 fps=0.6 q=42.0 size=       1kB time=00:00:02.87 bitrate=   2.0kbits/s speed=0.0108x    frame=  160 fps=0.6 q=41.0 size=       1kB time=00:00:02.91 bitrate=   2.0kbits/s speed=0.0107x    frame=  161 fps=0.6 q=41.0 size=       1kB time=00:00:02.95 bitrate=   2.0kbits/s speed=0.0107x    frame=  162 fps=0.6 q=41.0 size=       1kB time=00:00:03.00 bitrate=   2.0kbits/s speed=0.0108x    frame=  163 fps=0.6 q=41.0 size=       1kB time=00:00:03.04 bitrate=   1.9kbits/s speed=0.0109x    frame=  164 fps=0.6 q=41.0 size=       1kB time=00:00:03.08 bitrate=   1.9kbits/s speed=0.011x    frame=  165 fps=0.6 q=41.0 size=       1kB time=00:00:03.12 bitrate=   1.9kbits/s speed=0.011x    frame=  166 fps=0.6 q=41.0 size=       1kB time=00:00:03.16 bitrate=   1.9kbits/s speed=0.0109x    frame=  167 fps=0.6 q=41.0 size=       1kB time=00:00:03.20 bitrate=   1.8kbits/s speed=0.0109x    frame=  168 fps=0.6 q=41.0 size=       1kB time=00:00:03.25 bitrate=   1.8kbits/s speed=0.011x    frame=  169 fps=0.6 q=41.0 size=       1kB time=00:00:03.29 bitrate=   1.8kbits/s speed=0.0111x    frame=  170 fps=0.6 q=41.0 size=       1kB time=00:00:03.33 bitrate=   1.8kbits/s speed=0.0111x    frame=  171 fps=0.6 q=41.0 size=       1kB time=00:00:03.37 bitrate=   1.7kbits/s speed=0.0112x    frame=  172 fps=0.6 q=41.0 size=       1kB time=00:00:03.41 bitrate=   1.7kbits/s speed=0.011x    frame=  173 fps=0.6 q=41.0 size=       1kB time=00:00:03.45 bitrate=   1.7kbits/s speed=0.0111x    frame=  174 fps=0.6 q=41.0 size=       1kB time=00:00:03.50 bitrate=   1.7kbits/s speed=0.0111x    frame=  175 fps=0.6 q=41.0 size=       1kB time=00:00:03.54 bitrate=   1.7kbits/s speed=0.0112x    frame=  176 fps=0.6 q=41.0 size=       1kB time=00:00:03.58 bitrate=   1.6kbits/s speed=0.0112x    frame=  177 fps=0.5 q=41.0 size=       1kB time=00:00:03.62 bitrate=   1.6kbits/s speed=0.0113x    frame=  178 fps=0.5 q=41.0 size=       1kB time=00:00:03.66 bitrate=   1.6kbits/s speed=0.0111x    frame=  179 fps=0.5 q=41.0 size=       1kB time=00:00:03.70 bitrate=   1.6kbits/s speed=0.0112x    frame=  180 fps=0.5 q=41.0 size=       1kB time=00:00:03.75 bitrate=   1.6kbits/s speed=0.0112x    frame=  181 fps=0.5 q=41.0 size=       1kB time=00:00:03.79 bitrate=   1.6kbits/s speed=0.0113x    frame=  182 fps=0.5 q=41.0 size=       1kB time=00:00:03.83 bitrate=   1.5kbits/s speed=0.0113x    frame=  183 fps=0.5 q=40.0 size=       1kB time=00:00:03.87 bitrate=   1.5kbits/s speed=0.0113x    frame=  184 fps=0.5 q=40.0 size=       1kB time=00:00:03.91 bitrate=   1.5kbits/s speed=0.0113x    frame=  185 fps=0.5 q=40.0 size=       1kB time=00:00:03.95 bitrate=   1.5kbits/s speed=0.0113x    frame=  186 fps=0.5 q=40.0 size=       1kB time=00:00:04.00 bitrate=   1.5kbits/s speed=0.0113x    frame=  187 fps=0.5 q=40.0 size=       1kB time=00:00:04.04 bitrate=   1.5kbits/s speed=0.0114x    frame=  188 fps=0.5 q=40.0 size=       1kB time=00:00:04.08 bitrate=   1.4kbits/s speed=0.0114x    frame=  189 fps=0.5 q=40.0 size=       1kB time=00:00:04.12 bitrate=   1.4kbits/s speed=0.0114x    frame=  190 fps=0.5 q=40.0 size=       1kB time=00:00:04.16 bitrate=   1.4kbits/s speed=0.0115x    frame=  191 fps=0.5 q=40.0 size=       1kB time=00:00:04.20 bitrate=   1.4kbits/s speed=0.0114x    frame=  192 fps=0.5 q=40.0 size=       1kB time=00:00:04.25 bitrate=   1.4kbits/s speed=0.0115x    frame=  193 fps=0.5 q=40.0 size=       1kB time=00:00:04.29 bitrate=   1.4kbits/s speed=0.0115x    frame=  194 fps=0.5 q=40.0 size=       1kB time=00:00:04.33 bitrate=   1.4kbits/s speed=0.0116x    frame=  195 fps=0.5 q=40.0 size=       1kB time=00:00:04.37 bitrate=   1.3kbits/s speed=0.0115x    frame=  196 fps=0.5 q=40.0 size=       1kB time=00:00:04.41 bitrate=   1.3kbits/s speed=0.0116x    frame=  198 fps=0.5 q=40.0 size=       1kB time=00:00:04.50 bitrate=   1.3kbits/s speed=0.0117x    frame=  199 fps=0.5 q=40.0 size=       1kB time=00:00:04.54 bitrate=   1.3kbits/s speed=0.0117x    frame=  200 fps=0.5 q=40.0 size=       1kB time=00:00:04.58 bitrate=   1.3kbits/s speed=0.0117x    frame=  201 fps=0.5 q=40.0 size=       1kB time=00:00:04.62 bitrate=   1.3kbits/s speed=0.0116x    frame=  202 fps=0.5 q=40.0 size=       1kB time=00:00:04.66 bitrate=   1.3kbits/s speed=0.0117x    frame=  203 fps=0.5 q=40.0 size=       1kB time=00:00:04.70 bitrate=   1.3kbits/s speed=0.0117x    frame=  204 fps=0.5 q=40.0 size=       1kB time=00:00:04.75 bitrate=   1.2kbits/s speed=0.0116x    frame=  205 fps=0.5 q=40.0 size=       1kB time=00:00:04.79 bitrate=   1.2kbits/s speed=0.0116x    frame=  206 fps=0.5 q=40.0 size=       1kB time=00:00:04.83 bitrate=   1.2kbits/s speed=0.0116x    frame=  207 fps=0.5 q=40.0 size=       1kB time=00:00:04.87 bitrate=   1.2kbits/s speed=0.0117x    frame=  208 fps=0.5 q=40.0 size=    4298kB time=00:00:04.91 bitrate=7159.4kbits/s speed=0.0117x    frame=  209 fps=0.5 q=40.0 size=    4298kB time=00:00:04.95 bitrate=7100.2kbits/s speed=0.0118x    frame=  210 fps=0.5 q=40.0 size=    4298kB time=00:00:05.00 bitrate=7040.6kbits/s speed=0.0118x    frame=  211 fps=0.5 q=40.0 size=    4298kB time=00:00:05.04 bitrate=6982.0kbits/s speed=0.0116x    frame=  212 fps=0.5 q=40.0 size=    4298kB time=00:00:05.08 bitrate=6925.7kbits/s speed=0.0117x    frame=  213 fps=0.5 q=40.0 size=    4298kB time=00:00:05.12 bitrate=6868.9kbits/s speed=0.0117x    frame=  214 fps=0.5 q=40.0 size=    4298kB time=00:00:05.16 bitrate=6813.1kbits/s speed=0.0117x    frame=  215 fps=0.5 q=40.0 size=    4298kB time=00:00:05.20 bitrate=6759.5kbits/s speed=0.0117x    frame=  216 fps=0.5 q=40.0 size=    4298kB time=00:00:05.25 bitrate=6705.4kbits/s speed=0.0118x    frame=  217 fps=0.5 q=40.0 size=    4298kB time=00:00:05.29 bitrate=6652.2kbits/s speed=0.0117x    frame=  218 fps=0.5 q=40.0 size=    4298kB time=00:00:05.33 bitrate=6601.1kbits/s speed=0.0117x    frame=  219 fps=0.5 q=40.0 size=    4298kB time=00:00:05.37 bitrate=6549.5kbits/s speed=0.0117x    frame=  220 fps=0.5 q=40.0 size=    4298kB time=00:00:05.41 bitrate=6498.7kbits/s speed=0.0117x    frame=  221 fps=0.5 q=40.0 size=    4298kB time=00:00:05.45 bitrate=6449.9kbits/s speed=0.0117x    frame=  222 fps=0.5 q=40.0 size=    4298kB time=00:00:05.50 bitrate=6400.7kbits/s speed=0.0118x    frame=  223 fps=0.5 q=40.0 size=    4298kB time=00:00:05.54 bitrate=6352.2kbits/s speed=0.0117x    frame=  224 fps=0.5 q=40.0 size=    4298kB time=00:00:05.58 bitrate=6305.5kbits/s speed=0.0118x    frame=  225 fps=0.5 q=40.0 size=    4298kB time=00:00:05.62 bitrate=6258.4kbits/s speed=0.0117x    frame=  226 fps=0.5 q=40.0 size=    4298kB time=00:00:05.66 bitrate=6212.1kbits/s speed=0.0117x    frame=  227 fps=0.5 q=40.0 size=    4298kB time=00:00:05.70 bitrate=6167.5kbits/s speed=0.0118x    frame=  228 fps=0.5 q=40.0 size=    4298kB time=00:00:05.75 bitrate=6122.4kbits/s speed=0.0118x    frame=  229 fps=0.5 q=40.0 size=    4298kB time=00:00:05.79 bitrate=6078.0kbits/s speed=0.0118x    frame=  230 fps=0.5 q=40.0 size=    4298kB time=00:00:05.83 bitrate=6035.3kbits/s speed=0.0118x    frame=  231 fps=0.5 q=39.0 size=    4298kB time=00:00:05.87 bitrate=5992.2kbits/s speed=0.0118x    frame=  232 fps=0.5 q=39.0 size=    4298kB time=00:00:05.91 bitrate=5949.6kbits/s speed=0.0118x    frame=  233 fps=0.5 q=39.0 size=    4298kB time=00:00:05.95 bitrate=5908.7kbits/s speed=0.0118x    frame=  234 fps=0.5 q=39.0 size=    4298kB time=00:00:06.00 bitrate=5867.4kbits/s speed=0.0118x    frame=  235 fps=0.5 q=39.0 size=    4298kB time=00:00:06.04 bitrate=5826.6kbits/s speed=0.0118x    frame=  236 fps=0.5 q=39.0 size=    4298kB time=00:00:06.08 bitrate=5787.3kbits/s speed=0.0118x    frame=  237 fps=0.5 q=39.0 size=    4298kB time=00:00:06.12 bitrate=5747.6kbits/s speed=0.0118x    frame=  238 fps=0.5 q=39.0 size=    4298kB time=00:00:06.16 bitrate=5708.5kbits/s speed=0.0119x    frame=  239 fps=0.5 q=39.0 size=    4298kB time=00:00:06.20 bitrate=5670.8kbits/s speed=0.0119x    frame=  240 fps=0.5 q=39.0 size=    4298kB time=00:00:06.25 bitrate=5632.7kbits/s speed=0.0119x    frame=  241 fps=0.5 q=39.0 size=    4298kB time=00:00:06.29 bitrate=5595.1kbits/s speed=0.0119x    frame=  242 fps=0.5 q=39.0 size=    4298kB time=00:00:06.33 bitrate=5558.9kbits/s speed=0.012x    frame=  243 fps=0.5 q=39.0 size=    4298kB time=00:00:06.37 bitrate=5522.3kbits/s speed=0.0121x    frame=  245 fps=0.5 q=39.0 size=    4298kB time=00:00:06.45 bitrate=5451.3kbits/s speed=0.0119x    frame=  246 fps=0.5 q=39.0 size=    4298kB time=00:00:06.50 bitrate=5416.1kbits/s speed=0.0119x    frame=  247 fps=0.5 q=39.0 size=    4298kB time=00:00:06.54 bitrate=5381.3kbits/s speed=0.012x    frame=  248 fps=0.5 q=39.0 size=    4298kB time=00:00:06.58 bitrate=5347.8kbits/s speed=0.012x    frame=  249 fps=0.5 q=39.0 size=    4298kB time=00:00:06.62 bitrate=5313.9kbits/s speed=0.012x    frame=  250 fps=0.5 q=39.0 size=    4298kB time=00:00:06.66 bitrate=5280.4kbits/s speed=0.012x    frame=  251 fps=0.4 q=39.0 size=    4298kB time=00:00:06.70 bitrate=5248.2kbits/s speed=0.0119x    frame=  252 fps=0.4 q=39.0 size=    4298kB time=00:00:06.75 bitrate=5215.5kbits/s speed=0.012x    frame=  253 fps=0.4 q=39.0 size=    4298kB time=00:00:06.79 bitrate=5183.3kbits/s speed=0.012x    frame=  254 fps=0.4 q=39.0 size=    4298kB time=00:00:06.83 bitrate=5152.2kbits/s speed=0.012x    frame=  255 fps=0.4 q=39.0 size=    4298kB time=00:00:06.87 bitrate=5120.7kbits/s speed=0.012x    frame=  256 fps=0.4 q=39.0 size=    4298kB time=00:00:06.91 bitrate=5089.6kbits/s speed=0.012x    frame=  257 fps=0.4 q=39.0 size=    4298kB time=00:00:06.95 bitrate=5059.6kbits/s speed=0.0119x    frame=  258 fps=0.4 q=39.0 size=    4298kB time=00:00:07.00 bitrate=5029.3kbits/s speed=0.012x    frame=  259 fps=0.4 q=39.0 size=    4298kB time=00:00:07.04 bitrate=4999.3kbits/s speed=0.012x    frame=  260 fps=0.4 q=39.0 size=    4298kB time=00:00:07.08 bitrate=4970.4kbits/s speed=0.012x    frame=  261 fps=0.4 q=39.0 size=    4298kB time=00:00:07.12 bitrate=4941.1kbits/s speed=0.012x    frame=  262 fps=0.4 q=39.0 size=    4298kB time=00:00:07.16 bitrate=4912.1kbits/s speed=0.012x    frame=  263 fps=0.4 q=39.0 size=    4298kB time=00:00:07.20 bitrate=4884.2kbits/s speed=0.012x    frame=  264 fps=0.4 q=39.0 size=    4298kB time=00:00:07.25 bitrate=4855.9kbits/s speed=0.012x    frame=  265 fps=0.4 q=39.0 size=    4298kB time=00:00:07.29 bitrate=4827.9kbits/s speed=0.012x    frame=  266 fps=0.4 q=39.0 size=    4298kB time=00:00:07.33 bitrate=4800.9kbits/s speed=0.012x    frame=  267 fps=0.4 q=39.0 size=    4298kB time=00:00:07.37 bitrate=4773.6kbits/s speed=0.012x    frame=  268 fps=0.4 q=39.0 size=    4298kB time=00:00:07.41 bitrate=4746.6kbits/s speed=0.012x    frame=  269 fps=0.4 q=39.0 size=    4298kB time=00:00:07.45 bitrate=4720.5kbits/s speed=0.012x    frame=  270 fps=0.4 q=39.0 size=    4298kB time=00:00:07.50 bitrate=4694.0kbits/s speed=0.012x    frame=  271 fps=0.4 q=39.0 size=    4298kB time=00:00:07.54 bitrate=4667.9kbits/s speed=0.012x    frame=  272 fps=0.4 q=39.0 size=    4298kB time=00:00:07.58 bitrate=4642.7kbits/s speed=0.012x    frame=  273 fps=0.4 q=39.0 size=    4298kB time=00:00:07.62 bitrate=4617.1kbits/s speed=0.012x    frame=  274 fps=0.4 q=39.0 size=    4298kB time=00:00:07.66 bitrate=4591.8kbits/s speed=0.012x    frame=  276 fps=0.4 q=38.0 size=    4298kB time=00:00:07.75 bitrate=4542.6kbits/s speed=0.0121x    frame=  277 fps=0.4 q=38.0 size=    4298kB time=00:00:07.79 bitrate=4518.2kbits/s speed=0.0121x    frame=  278 fps=0.4 q=38.0 size=    4298kB time=00:00:07.83 bitrate=4494.5kbits/s speed=0.0122x    frame=  279 fps=0.4 q=38.0 size=    4298kB time=00:00:07.87 bitrate=4470.5kbits/s speed=0.012x    frame=  280 fps=0.4 q=38.0 size=    4298kB time=00:00:07.91 bitrate=4446.8kbits/s speed=0.0121x    frame=  281 fps=0.4 q=38.0 size=    4298kB time=00:00:07.95 bitrate=4423.9kbits/s speed=0.0121x    frame=  282 fps=0.4 q=38.0 size=    4298kB time=00:00:08.00 bitrate=4400.7kbits/s speed=0.0121x    frame=  283 fps=0.4 q=38.0 size=    4298kB time=00:00:08.04 bitrate=4377.7kbits/s speed=0.0122x    frame=  284 fps=0.4 q=38.0 size=    4298kB time=00:00:08.08 bitrate=4355.5kbits/s speed=0.0122x    frame=  285 fps=0.4 q=38.0 size=    4298kB time=00:00:08.12 bitrate=4333.0kbits/s speed=0.0121x    frame=  286 fps=0.4 q=38.0 size=    4298kB time=00:00:08.16 bitrate=4310.7kbits/s speed=0.0121x    frame=  287 fps=0.4 q=38.0 size=    4298kB time=00:00:08.20 bitrate=4289.2kbits/s speed=0.0121x    frame=  288 fps=0.4 q=38.0 size=    4298kB time=00:00:08.25 bitrate=4267.4kbits/s speed=0.0121x    frame=  289 fps=0.4 q=38.0 size=    4298kB time=00:00:08.29 bitrate=4245.8kbits/s speed=0.0121x    frame=  290 fps=0.4 q=38.0 size=    4298kB time=00:00:08.33 bitrate=4224.9kbits/s speed=0.0121x    frame=  291 fps=0.4 q=38.0 size=    4298kB time=00:00:08.37 bitrate=4203.7kbits/s speed=0.0121x    frame=  292 fps=0.4 q=38.0 size=    4298kB time=00:00:08.41 bitrate=4182.7kbits/s speed=0.0121x    frame=  293 fps=0.4 q=38.0 size=    4298kB time=00:00:08.45 bitrate=4162.4kbits/s speed=0.0121x    frame=  294 fps=0.4 q=38.0 size=    4298kB time=00:00:08.50 bitrate=4141.9kbits/s speed=0.0121x    frame=  295 fps=0.4 q=38.0 size=    4298kB time=00:00:08.54 bitrate=4121.5kbits/s speed=0.0121x    frame=  296 fps=0.4 q=38.0 size=    4298kB time=00:00:08.58 bitrate=4101.8kbits/s speed=0.0121x    frame=  297 fps=0.4 q=38.0 size=    4298kB time=00:00:08.62 bitrate=4081.8kbits/s speed=0.012x    frame=  298 fps=0.4 q=38.0 size=    4298kB time=00:00:08.66 bitrate=4062.1kbits/s speed=0.0121x    frame=  299 fps=0.4 q=38.0 size=    4298kB time=00:00:08.70 bitrate=4042.9kbits/s speed=0.0121x    frame=  300 fps=0.4 q=38.0 size=    4298kB time=00:00:08.75 bitrate=4023.5kbits/s speed=0.0121x    frame=  301 fps=0.4 q=38.0 size=    4298kB time=00:00:08.79 bitrate=4004.3kbits/s speed=0.0121x    frame=  302 fps=0.4 q=38.0 size=    4298kB time=00:00:08.83 bitrate=3985.7kbits/s speed=0.0121x    frame=  303 fps=0.4 q=38.0 size=    4298kB time=00:00:08.87 bitrate=3966.9kbits/s speed=0.0122x    frame=  304 fps=0.4 q=38.0 size=    4298kB time=00:00:08.91 bitrate=3948.2kbits/s speed=0.0121x    frame=  305 fps=0.4 q=38.0 size=    4298kB time=00:00:08.95 bitrate=3930.1kbits/s speed=0.0121x    frame=  306 fps=0.4 q=38.0 size=    4298kB time=00:00:09.00 bitrate=3911.8kbits/s speed=0.0122x    frame=  307 fps=0.4 q=38.0 size=    4298kB time=00:00:09.04 bitrate=3893.6kbits/s speed=0.0121x    frame=  308 fps=0.4 q=38.0 size=    4298kB time=00:00:09.08 bitrate=3876.0kbits/s speed=0.0122x    frame=  309 fps=0.4 q=38.0 size=    4298kB time=00:00:09.12 bitrate=3858.2kbits/s speed=0.0122x    frame=  310 fps=0.4 q=38.0 size=    4298kB time=00:00:09.16 bitrate=3840.5kbits/s speed=0.0122x    frame=  311 fps=0.4 q=38.0 size=    4298kB time=00:00:09.20 bitrate=3823.4kbits/s speed=0.0122x    frame=  312 fps=0.4 q=38.0 size=    4298kB time=00:00:09.25 bitrate=3806.1kbits/s speed=0.0122x    frame=  314 fps=0.4 q=38.0 size=    4298kB time=00:00:09.33 bitrate=3772.2kbits/s speed=0.0122x    frame=  315 fps=0.4 q=38.0 size=    4298kB time=00:00:09.37 bitrate=3755.3kbits/s speed=0.0122x    frame=  316 fps=0.4 q=38.0 size=    4298kB time=00:00:09.41 bitrate=3738.6kbits/s speed=0.0123x    frame=  318 fps=0.4 q=38.0 size=    4298kB time=00:00:09.50 bitrate=3705.9kbits/s speed=0.0123x    frame=  319 fps=0.4 q=38.0 size=    4298kB time=00:00:09.54 bitrate=3689.6kbits/s speed=0.0123x    frame=  320 fps=0.4 q=38.0 size=    4298kB time=00:00:09.58 bitrate=3673.8kbits/s speed=0.0123x    frame=  321 fps=0.4 q=38.0 size=    4298kB time=00:00:09.62 bitrate=3657.8kbits/s speed=0.0123x    frame=  322 fps=0.4 q=38.0 size=    4298kB time=00:00:09.66 bitrate=3641.9kbits/s speed=0.0123x    frame=  323 fps=0.4 q=38.0 size=    4298kB time=00:00:09.70 bitrate=3626.5kbits/s speed=0.0123x    frame=  324 fps=0.4 q=37.0 size=    4298kB time=00:00:09.75 bitrate=3610.9kbits/s speed=0.0123x    frame=  325 fps=0.4 q=38.0 size=    4298kB time=00:00:09.79 bitrate=3595.4kbits/s speed=0.0124x    frame=  326 fps=0.4 q=37.0 size=    4298kB time=00:00:09.83 bitrate=3580.4kbits/s speed=0.0124x    frame=  327 fps=0.4 q=37.0 size=    4298kB time=00:00:09.87 bitrate=3565.2kbits/s speed=0.0124x    frame=  328 fps=0.4 q=37.0 size=    4298kB time=00:00:09.91 bitrate=3550.1kbits/s speed=0.0123x    frame=  329 fps=0.4 q=37.0 size=    7910kB time=00:00:09.95 bitrate=6506.4kbits/s speed=0.0123x    frame=  330 fps=0.4 q=37.0 size=    7910kB time=00:00:10.00 bitrate=6479.0kbits/s speed=0.0124x    frame=  331 fps=0.4 q=37.0 size=    7910kB time=00:00:10.04 bitrate=6452.0kbits/s speed=0.0124x    frame=  332 fps=0.4 q=37.0 size=    7910kB time=00:00:10.08 bitrate=6425.7kbits/s speed=0.0124x    frame=  333 fps=0.4 q=35.0 size=    7910kB time=00:00:10.12 bitrate=6399.1kbits/s speed=0.0124x    frame=  334 fps=0.4 q=37.0 size=    7910kB time=00:00:10.16 bitrate=6372.6kbits/s speed=0.0124x    frame=  335 fps=0.4 q=37.0 size=    7910kB time=00:00:10.20 bitrate=6347.0kbits/s speed=0.0124x    frame=  336 fps=0.4 q=37.0 size=    7910kB time=00:00:10.25 bitrate=6321.0kbits/s speed=0.0124x    frame=  337 fps=0.4 q=37.0 size=    7910kB time=00:00:10.29 bitrate=6295.2kbits/s speed=0.0124x    frame=  338 fps=0.4 q=37.0 size=    8149kB time=00:00:10.33 bitrate=6460.2kbits/s speed=0.0124x    frame=  344 fps=0.4 q=37.0 size=    8149kB time=00:00:10.58 bitrate=6307.6kbits/s speed=0.0127x    frame=  346 fps=0.4 q=37.0 size=    8149kB time=00:00:10.66 bitrate=6257.9kbits/s speed=0.0128x    frame=  347 fps=0.4 q=37.0 size=    8149kB time=00:00:10.70 bitrate=6233.9kbits/s speed=0.0128x    frame=  348 fps=0.4 q=35.0 size=    8149kB time=00:00:10.75 bitrate=6209.6kbits/s speed=0.0128x    frame=  349 fps=0.4 q=37.0 size=    8149kB time=00:00:10.79 bitrate=6185.4kbits/s speed=0.0128x    frame=  351 fps=0.4 q=37.0 size=    8149kB time=00:00:10.87 bitrate=6138.2kbits/s speed=0.0129x    frame=  353 fps=0.4 q=37.0 size=    8149kB time=00:00:10.95 bitrate=6091.7kbits/s speed=0.013x    frame=  355 fps=0.4 q=37.0 size=    8149kB time=00:00:11.04 bitrate=6045.4kbits/s speed=0.013x    frame=  357 fps=0.4 q=37.0 size=    8149kB time=00:00:11.12 bitrate=6000.3kbits/s speed=0.0131x    frame=  358 fps=0.4 q=37.0 size=    8149kB time=00:00:11.16 bitrate=5977.7kbits/s speed=0.013x    frame=  359 fps=0.4 q=37.0 size=    8149kB time=00:00:11.20 bitrate=5955.9kbits/s speed=0.0131x    frame=  361 fps=0.4 q=37.0 size=    8149kB time=00:00:11.29 bitrate=5911.6kbits/s speed=0.0131x    frame=  362 fps=0.4 q=37.0 size=    8149kB time=00:00:11.33 bitrate=5890.2kbits/s speed=0.0131x    frame=  363 fps=0.4 q=36.0 size=    8149kB time=00:00:11.37 bitrate=5868.4kbits/s speed=0.0131x    frame=  365 fps=0.4 q=37.0 size=    8149kB time=00:00:11.45 bitrate=5825.9kbits/s speed=0.0131x    frame=  366 fps=0.4 q=36.0 size=    8149kB time=00:00:11.50 bitrate=5804.6kbits/s speed=0.0131x    frame=  367 fps=0.4 q=36.0 size=    8149kB time=00:00:11.54 bitrate=5783.5kbits/s speed=0.0132x    frame=  369 fps=0.4 q=36.0 size=    8149kB time=00:00:11.62 bitrate=5742.2kbits/s speed=0.0132x    frame=  370 fps=0.4 q=36.0 size=    8149kB time=00:00:11.66 bitrate=5721.6kbits/s speed=0.0132x    frame=  371 fps=0.4 q=36.0 size=    8149kB time=00:00:11.70 bitrate=5701.5kbits/s speed=0.0132x    frame=  372 fps=0.4 q=36.0 size=    8149kB time=00:00:11.75 bitrate=5681.2kbits/s speed=0.0132x    frame=  373 fps=0.4 q=36.0 size=    8149kB time=00:00:11.79 bitrate=5660.9kbits/s speed=0.0132x    frame=  374 fps=0.4 q=36.0 size=    8149kB time=00:00:11.83 bitrate=5641.3kbits/s speed=0.0133x    frame=  376 fps=0.4 q=36.0 size=    8149kB time=00:00:11.91 bitrate=5601.5kbits/s speed=0.0133x    frame=  377 fps=0.4 q=36.0 size=    8149kB time=00:00:11.95 bitrate=5582.3kbits/s speed=0.0133x    frame=  378 fps=0.4 q=36.0 size=    8149kB time=00:00:12.00 bitrate=5562.8kbits/s speed=0.0133x    frame=  380 fps=0.4 q=36.0 size=    8149kB time=00:00:12.08 bitrate=5524.6kbits/s speed=0.0133x    frame=  381 fps=0.4 q=36.0 size=    8149kB time=00:00:12.12 bitrate=5505.5kbits/s speed=0.0133x    frame=  383 fps=0.4 q=36.0 size=    8149kB time=00:00:12.20 bitrate=5468.0kbits/s speed=0.0134x    frame=  385 fps=0.4 q=36.0 size=    8149kB time=00:00:12.29 bitrate=5430.7kbits/s speed=0.0134x    frame=  386 fps=0.4 q=36.0 size=    8149kB time=00:00:12.33 bitrate=5412.6kbits/s speed=0.0134x    frame=  387 fps=0.4 q=36.0 size=    8149kB time=00:00:12.37 bitrate=5394.3kbits/s speed=0.0135x    frame=  388 fps=0.4 q=36.0 size=    8149kB time=00:00:12.41 bitrate=5376.0kbits/s speed=0.0134x    frame=  389 fps=0.4 q=36.0 size=    8149kB time=00:00:12.45 bitrate=5358.3kbits/s speed=0.0135x    frame=  390 fps=0.4 q=36.0 size=    8149kB time=00:00:12.50 bitrate=5340.3kbits/s speed=0.0135x    frame=  394 fps=0.4 q=35.0 size=    8149kB time=00:00:12.66 bitrate=5269.9kbits/s speed=0.0135x    frame=  395 fps=0.4 q=36.0 size=    8149kB time=00:00:12.70 bitrate=5252.9kbits/s speed=0.0136x    frame=  398 fps=0.4 q=36.0 size=    8149kB time=00:00:12.83 bitrate=5201.7kbits/s speed=0.0137x    frame=  400 fps=0.4 q=35.0 size=    8149kB time=00:00:12.91 bitrate=5167.9kbits/s speed=0.0136x    frame=  401 fps=0.4 q=35.0 size=    8149kB time=00:00:12.95 bitrate=5151.6kbits/s speed=0.0136x    frame=  404 fps=0.4 q=35.0 size=    8149kB time=00:00:13.08 bitrate=5102.4kbits/s speed=0.0138x    frame=  406 fps=0.4 q=35.0 size=    8149kB time=00:00:13.16 bitrate=5069.8kbits/s speed=0.0137x    frame=  408 fps=0.4 q=35.0 size=    8149kB time=00:00:13.25 bitrate=5038.1kbits/s speed=0.0138x    frame=  411 fps=0.4 q=35.0 size=    8149kB time=00:00:13.37 bitrate=4991.0kbits/s speed=0.0139x    frame=  412 fps=0.4 q=35.0 size=    8149kB time=00:00:13.41 bitrate=4975.4kbits/s speed=0.0138x    frame=  415 fps=0.4 q=35.0 size=    8149kB time=00:00:13.54 bitrate=4929.4kbits/s speed=0.0139x    frame=  416 fps=0.4 q=35.0 size=    8149kB time=00:00:13.58 bitrate=4914.6kbits/s speed=0.0139x    frame=  417 fps=0.4 q=35.0 size=    8149kB time=00:00:13.62 bitrate=4899.4kbits/s speed=0.0139x    frame=  418 fps=0.4 q=35.0 size=    8149kB time=00:00:13.66 bitrate=4884.3kbits/s speed=0.0139x    frame=  421 fps=0.4 q=34.0 size=    8149kB time=00:00:13.79 bitrate=4840.1kbits/s speed=0.014x    frame=  422 fps=0.4 q=34.0 size=    8149kB time=00:00:13.83 bitrate=4825.7kbits/s speed=0.014x    frame=  423 fps=0.4 q=34.0 size=    8149kB time=00:00:13.87 bitrate=4811.1kbits/s speed=0.014x    frame=  426 fps=0.4 q=34.0 size=    8149kB time=00:00:14.00 bitrate=4768.2kbits/s speed=0.014x    frame=  428 fps=0.4 q=34.0 size=    8149kB time=00:00:14.08 bitrate=4740.1kbits/s speed=0.0141x    frame=  432 fps=0.4 q=34.0 size=    8149kB time=00:00:14.25 bitrate=4684.5kbits/s speed=0.0141x    frame=  433 fps=0.4 q=34.0 size=    8149kB time=00:00:14.29 bitrate=4670.8kbits/s speed=0.0142x    frame=  434 fps=0.4 q=34.0 size=    8149kB time=00:00:14.33 bitrate=4657.4kbits/s speed=0.0142x    frame=  438 fps=0.4 q=33.0 size=    8149kB time=00:00:14.50 bitrate=4603.8kbits/s speed=0.0142x    frame=  440 fps=0.4 q=34.0 size=    8149kB time=00:00:14.58 bitrate=4577.6kbits/s speed=0.0143x    frame=  444 fps=0.4 q=33.0 size=    8149kB time=00:00:14.75 bitrate=4525.7kbits/s speed=0.0143x    frame=  445 fps=0.4 q=33.0 size=    8149kB time=00:00:14.79 bitrate=4512.9kbits/s speed=0.0143x    frame=  446 fps=0.4 q=33.0 size=    8149kB time=00:00:14.83 bitrate=4500.4kbits/s speed=0.0144x    frame=  448 fps=0.4 q=33.0 size=    8149kB time=00:00:14.91 bitrate=4475.1kbits/s speed=0.0143x    frame=  449 fps=0.4 q=33.0 size=    8149kB time=00:00:14.95 bitrate=4462.8kbits/s speed=0.0143x    frame=  451 fps=0.4 q=33.0 size=    8149kB time=00:00:15.04 bitrate=4437.9kbits/s speed=0.0144x    frame=  452 fps=0.4 q=33.0 size=    8149kB time=00:00:15.08 bitrate=4425.8kbits/s speed=0.0144x    frame=  453 fps=0.4 q=33.0 size=    8149kB time=00:00:15.12 bitrate=4413.5kbits/s speed=0.0144x    frame=  454 fps=0.4 q=33.0 size=    8149kB time=00:00:15.16 bitrate=4401.3kbits/s speed=0.0144x    frame=  455 fps=0.4 q=33.0 size=    8149kB time=00:00:15.20 bitrate=4389.5kbits/s speed=0.0143x    frame=  456 fps=0.4 q=33.0 size=    8149kB time=00:00:15.25 bitrate=4377.4kbits/s speed=0.0144x    frame=  457 fps=0.4 q=33.0 size=    8149kB time=00:00:15.29 bitrate=4365.3kbits/s speed=0.0144x    frame=  458 fps=0.4 q=33.0 size=   10826kB time=00:00:15.33 bitrate=5783.8kbits/s speed=0.0144x    frame=  459 fps=0.4 q=33.0 size=   10826kB time=00:00:15.37 bitrate=5768.0kbits/s speed=0.0144x    frame=  460 fps=0.4 q=33.0 size=   10826kB time=00:00:15.41 bitrate=5752.3kbits/s speed=0.0144x    frame=  461 fps=0.4 q=33.0 size=   10826kB time=00:00:15.45 bitrate=5737.0kbits/s speed=0.0144x    frame=  463 fps=0.4 q=33.0 size=   10826kB time=00:00:15.54 bitrate=5706.0kbits/s speed=0.0144x    frame=  464 fps=0.4 q=33.0 size=   10826kB time=00:00:15.58 bitrate=5691.0kbits/s speed=0.0144x    frame=  465 fps=0.4 q=33.0 size=   10826kB time=00:00:15.62 bitrate=5675.7kbits/s speed=0.0144x    frame=  466 fps=0.4 q=33.0 size=   10826kB time=00:00:15.66 bitrate=5660.5kbits/s speed=0.0144x    frame=  467 fps=0.4 q=33.0 size=   10826kB time=00:00:15.70 bitrate=5645.7kbits/s speed=0.0144x    frame=  468 fps=0.4 q=33.0 size=   10826kB time=00:00:15.75 bitrate=5630.7kbits/s speed=0.0144x    frame=  469 fps=0.4 q=33.0 size=   10826kB time=00:00:15.79 bitrate=5615.7kbits/s speed=0.0145x    frame=  470 fps=0.4 q=33.0 size=   10826kB time=00:00:15.83 bitrate=5601.1kbits/s speed=0.0144x    frame=  471 fps=0.4 q=33.0 size=   10826kB time=00:00:15.87 bitrate=5586.3kbits/s speed=0.0144x    frame=  472 fps=0.4 q=33.0 size=   10826kB time=00:00:15.91 bitrate=5571.6kbits/s speed=0.0144x    frame=  476 fps=0.4 q=33.0 size=   10826kB time=00:00:16.08 bitrate=5514.1kbits/s speed=0.0144x    frame=  477 fps=0.4 q=33.0 size=   10826kB time=00:00:16.12 bitrate=5499.7kbits/s speed=0.0144x    frame=  478 fps=0.4 q=33.0 size=   10826kB time=00:00:16.16 bitrate=5485.4kbits/s speed=0.0145x    frame=  479 fps=0.4 q=33.0 size=   10826kB time=00:00:16.20 bitrate=5471.6kbits/s speed=0.0145x    frame=  480 fps=0.4 q=33.0 size=   10826kB time=00:00:16.25 bitrate=5457.4kbits/s speed=0.0145x    frame=  481 fps=0.4 q=33.0 size=   10826kB time=00:00:16.29 bitrate=5443.3kbits/s speed=0.0145x    frame=  482 fps=0.4 q=33.0 size=   10826kB time=00:00:16.33 bitrate=5429.7kbits/s speed=0.0145x    frame=  483 fps=0.4 q=33.0 size=   10826kB time=00:00:16.37 bitrate=5415.8kbits/s speed=0.0144x    frame=  484 fps=0.4 q=33.0 size=   10826kB time=00:00:16.41 bitrate=5401.9kbits/s speed=0.0144x    frame=  485 fps=0.4 q=33.0 size=   10826kB time=00:00:16.45 bitrate=5388.4kbits/s speed=0.0144x    frame=  487 fps=0.4 q=33.0 size=   10826kB time=00:00:16.54 bitrate=5361.1kbits/s speed=0.0145x    frame=  488 fps=0.4 q=33.0 size=   10826kB time=00:00:16.58 bitrate=5347.8kbits/s speed=0.0145x    frame=  489 fps=0.4 q=33.0 size=   10826kB time=00:00:16.62 bitrate=5334.3kbits/s speed=0.0145x    frame=  490 fps=0.4 q=33.0 size=   10826kB time=00:00:16.66 bitrate=5320.9kbits/s speed=0.0144x    frame=  491 fps=0.4 q=33.0 size=   10826kB time=00:00:16.70 bitrate=5307.8kbits/s speed=0.0144x    frame=  492 fps=0.4 q=33.0 size=   10826kB time=00:00:16.75 bitrate=5294.5kbits/s speed=0.0144x    frame=  493 fps=0.4 q=33.0 size=   10826kB time=00:00:16.79 bitrate=5281.3kbits/s speed=0.0144x    frame=  494 fps=0.4 q=33.0 size=   10826kB time=00:00:16.83 bitrate=5268.4kbits/s speed=0.0144x    frame=  495 fps=0.4 q=33.0 size=   10826kB time=00:00:16.87 bitrate=5255.3kbits/s speed=0.0144x    frame=  496 fps=0.4 q=33.0 size=   10826kB time=00:00:16.91 bitrate=5242.3kbits/s speed=0.0145x    frame=  497 fps=0.4 q=33.0 size=   10826kB time=00:00:16.95 bitrate=5229.6kbits/s speed=0.0144x    frame=  498 fps=0.4 q=33.0 size=   10826kB time=00:00:17.00 bitrate=5216.7kbits/s speed=0.0144x    frame=  499 fps=0.4 q=33.0 size=   10826kB time=00:00:17.04 bitrate=5203.8kbits/s speed=0.0144x    frame=  500 fps=0.4 q=33.0 size=   10826kB time=00:00:17.08 bitrate=5191.3kbits/s speed=0.0144x    frame=  500 fps=0.4 q=-1.0 Lsize=   15066kB time=00:00:20.70 bitrate=5959.9kbits/s speed=0.015x    
video:15062kB audio:0kB subtitle:0kB other streams:0kB global headers:0kB muxing overhead: 0.030928%
bench: utime=5232.196s
bench: maxrss=4181876kB
[libx264 @ 0x301d1c0] frame I:3     Avg QP:27.52  size:165622
[libx264 @ 0x301d1c0] frame P:267   Avg QP:35.67  size: 40290
[libx264 @ 0x301d1c0] frame B:230   Avg QP:35.38  size: 18123
[libx264 @ 0x301d1c0] consecutive B-frames: 34.8% 13.6% 12.0% 16.0% 14.0%  9.6%  0.0%  0.0%  0.0%  0.0%  0.0%  0.0%  0.0%  0.0%  0.0%  0.0%  0.0%
[libx264 @ 0x301d1c0] mb I  I16..4: 20.1% 71.1%  8.9%
[libx264 @ 0x301d1c0] mb P  I16..4: 13.1% 13.5%  6.4%  P16..4: 26.7% 12.7%  1.6%  0.0%  0.0%    skip:26.0%
[libx264 @ 0x301d1c0] mb B  I16..4:  1.0%  1.5%  0.2%  B16..8: 27.9%  5.1%  0.5%  direct: 0.5%  skip:63.3%  L0:40.6% L1:57.5% BI: 1.9%
[libx264 @ 0x301d1c0] final ratefactor: 30.46
[libx264 @ 0x301d1c0] 8x8 transform intra:42.7% inter:88.0%
[libx264 @ 0x301d1c0] direct mvs  spatial:98.7% temporal:1.3%
[libx264 @ 0x301d1c0] coded y,uvDC,uvAC intra: 11.7% 13.7% 0.6% inter: 2.6% 2.3% 0.0%
[libx264 @ 0x301d1c0] i16 v,h,dc,p:  6% 16%  3% 75%
[libx264 @ 0x301d1c0] i8 v,h,dc,ddl,ddr,vr,hd,vl,hu: 17%  7% 42%  4%  5%  5%  6%  5%  9%
[libx264 @ 0x301d1c0] i4 v,h,dc,ddl,ddr,vr,hd,vl,hu: 13%  5% 79%  0%  1%  1%  1%  0%  1%
[libx264 @ 0x301d1c0] i8c dc,h,v,p: 38% 39%  9% 14%
[libx264 @ 0x301d1c0] Weighted P-Frames: Y:3.0% UV:2.6%
[libx264 @ 0x301d1c0] ref P L0: 52.1% 21.8% 11.8%  3.8%  2.4%  1.8%  1.5%  0.9%  0.8%  0.7%  0.5%  0.5%  0.4%  0.4%  0.3%  0.2%
[libx264 @ 0x301d1c0] ref B L0: 90.3%  4.6%  1.9%  0.8%  0.6%  0.4%  0.4%  0.2%  0.2%  0.1%  0.1%  0.1%  0.1%  0.1%  0.0%
[libx264 @ 0x301d1c0] ref B L1: 98.7%  1.3%
[libx264 @ 0x301d1c0] kb/s:5922.23
